<mxfile host="app.diagrams.net" modified="2023-09-21T14:10:39.127Z" agent="Mozilla/5.0 (Windows NT 10.0; Win64; x64) AppleWebKit/537.36 (KHTML, like Gecko) Chrome/117.0.0.0 Safari/537.36" etag="toRB1YHfj9HNUZCBlFMr" version="21.8.0" type="github">
  <diagram name="第 1 页" id="77UQooOAlSXiJwGarcPg">
    <mxGraphModel dx="1434" dy="758" grid="1" gridSize="11" guides="1" tooltips="1" connect="1" arrows="1" fold="1" page="1" pageScale="1" pageWidth="2339" pageHeight="3300" math="0" shadow="0">
      <root>
        <mxCell id="0" />
        <mxCell id="1" parent="0" />
      </root>
    </mxGraphModel>
  </diagram>
</mxfile>
